<svg width="139" height="24" viewBox="0 0 139 24" fill="none" xmlns="http://www.w3.org/2000/svg">
<path d="M0.820455 5.72727V0.890909H20.0364V5.72727H13.3864V23H7.47045V5.72727H0.820455Z" fill="#2F80ED"/>
<path d="M30.3271 23.3023C28.5567 23.3023 27.0309 22.964 25.7499 22.2875C24.476 21.6038 23.4936 20.625 22.8027 19.3511C22.119 18.0701 21.7771 16.5371 21.7771 14.7523C21.7771 13.0394 22.1226 11.5424 22.8135 10.2614C23.5044 8.9803 24.4796 7.98352 25.7391 7.27102C26.9985 6.55852 28.4847 6.20227 30.1976 6.20227C31.4499 6.20227 32.5834 6.39659 33.5982 6.78523C34.6129 7.17386 35.4802 7.73883 36.1999 8.48011C36.9196 9.2142 37.4737 10.1066 37.8624 11.1574C38.251 12.2081 38.4453 13.392 38.4453 14.7091V16.0909H23.6339V12.8091H32.9612C32.954 12.3341 32.8317 11.9167 32.5942 11.5568C32.3639 11.1898 32.0508 10.9055 31.655 10.704C31.2663 10.4953 30.8237 10.3909 30.3271 10.3909C29.8449 10.3909 29.4023 10.4953 28.9993 10.704C28.5963 10.9055 28.2724 11.1862 28.0277 11.546C27.7902 11.9059 27.6643 12.3269 27.6499 12.8091V16.35C27.6499 16.8826 27.7614 17.3576 27.9845 17.775C28.2076 18.1924 28.5279 18.5199 28.9453 18.7574C29.3627 18.9949 29.8665 19.1136 30.4567 19.1136C30.8669 19.1136 31.2411 19.0561 31.5794 18.9409C31.9249 18.8258 32.2199 18.6602 32.4646 18.4443C32.7093 18.2212 32.8893 17.9549 33.0044 17.6455H38.4453C38.2582 18.797 37.8156 19.7973 37.1175 20.6466C36.4194 21.4886 35.4946 22.1436 34.343 22.6114C33.1987 23.072 31.8601 23.3023 30.3271 23.3023ZM56.0338 11.8159H50.5497C50.5209 11.4777 50.4022 11.1862 50.1935 10.9415C49.9848 10.6968 49.7149 10.5097 49.3838 10.3801C49.0599 10.2434 48.7001 10.175 48.3043 10.175C47.7933 10.175 47.3543 10.2686 46.9872 10.4557C46.6202 10.6428 46.4402 10.9091 46.4474 11.2545C46.4402 11.4992 46.5446 11.7259 46.7605 11.9347C46.9836 12.1434 47.4118 12.3053 48.0452 12.4205L51.4134 13.025C53.1118 13.3345 54.3749 13.8562 55.2026 14.5903C56.0374 15.3172 56.4584 16.2924 56.4656 17.5159C56.4584 18.6962 56.1058 19.7218 55.4077 20.5926C54.7168 21.4562 53.7704 22.1256 52.5685 22.6006C51.3738 23.0684 50.0099 23.3023 48.477 23.3023C45.9437 23.3023 43.9609 22.7841 42.5287 21.7477C41.1037 20.7114 40.3084 19.3439 40.1429 17.6455H46.0588C46.138 18.1708 46.3971 18.5775 46.8361 18.8653C47.2823 19.146 47.8437 19.2864 48.5202 19.2864C49.0671 19.2864 49.5169 19.1928 49.8696 19.0057C50.2294 18.8186 50.413 18.5523 50.4202 18.2068C50.413 17.8902 50.2546 17.6383 49.9452 17.4511C49.6429 17.264 49.1679 17.1129 48.5202 16.9977L45.5838 16.4795C43.8925 16.1845 42.6259 15.6231 41.7838 14.7955C40.9418 13.9678 40.5243 12.9027 40.5315 11.6C40.5243 10.4485 40.8266 9.4733 41.4384 8.67443C42.0573 7.86837 42.9389 7.25663 44.0832 6.8392C45.2348 6.41458 46.5986 6.20227 48.1747 6.20227C50.5713 6.20227 52.4605 6.69886 53.8423 7.69205C55.2313 8.68523 55.9618 10.0598 56.0338 11.8159ZM64.7079 13.6727V23H58.7489V6.41818H64.4057V9.57045H64.5784C64.9383 8.5197 65.5716 7.69564 66.4784 7.0983C67.3924 6.50095 68.4576 6.20227 69.6739 6.20227C70.847 6.20227 71.8653 6.47216 72.729 7.01193C73.5998 7.54451 74.2727 8.2786 74.7477 9.2142C75.2299 10.1498 75.4674 11.2186 75.4602 12.4205V23H69.5011V13.6727C69.5083 12.8523 69.2996 12.2081 68.875 11.7403C68.4576 11.2725 67.8746 11.0386 67.1261 11.0386C66.6367 11.0386 66.2085 11.1466 65.8415 11.3625C65.4816 11.5712 65.2045 11.8735 65.0102 12.2693C64.8159 12.658 64.7151 13.1258 64.7079 13.6727ZM86.3474 23.3023C84.577 23.3023 83.0512 22.964 81.7702 22.2875C80.4963 21.6038 79.5139 20.625 78.823 19.3511C78.1393 18.0701 77.7974 16.5371 77.7974 14.7523C77.7974 13.0394 78.1429 11.5424 78.8338 10.2614C79.5247 8.9803 80.4999 7.98352 81.7594 7.27102C83.0188 6.55852 84.505 6.20227 86.2179 6.20227C87.4702 6.20227 88.6037 6.39659 89.6185 6.78523C90.6332 7.17386 91.5005 7.73883 92.2202 8.48011C92.9399 9.2142 93.494 10.1066 93.8827 11.1574C94.2713 12.2081 94.4656 13.392 94.4656 14.7091V16.0909H79.6543V12.8091H88.9815C88.9743 12.3341 88.852 11.9167 88.6145 11.5568C88.3842 11.1898 88.0711 10.9055 87.6753 10.704C87.2866 10.4953 86.844 10.3909 86.3474 10.3909C85.8652 10.3909 85.4226 10.4953 85.0196 10.704C84.6166 10.9055 84.2927 11.1862 84.048 11.546C83.8105 11.9059 83.6846 12.3269 83.6702 12.8091V16.35C83.6702 16.8826 83.7817 17.3576 84.0048 17.775C84.2279 18.1924 84.5482 18.5199 84.9656 18.7574C85.383 18.9949 85.8868 19.1136 86.477 19.1136C86.8872 19.1136 87.2615 19.0561 87.5997 18.9409C87.9452 18.8258 88.2402 18.6602 88.4849 18.4443C88.7296 18.2212 88.9096 17.9549 89.0247 17.6455H94.4656C94.2785 18.797 93.8359 19.7973 93.1378 20.6466C92.4397 21.4886 91.5149 22.1436 90.3634 22.6114C89.219 23.072 87.8804 23.3023 86.3474 23.3023ZM99.6259 23L95.4804 6.41818H101.439L103.339 16.5227H103.469L105.585 6.41818H111.371L113.574 16.4364H113.703L115.517 6.41818H121.476L117.33 23H110.896L108.564 14.1045H108.392L106.06 23H99.6259ZM138.446 11.8159H132.962C132.933 11.4777 132.815 11.1862 132.606 10.9415C132.397 10.6968 132.127 10.5097 131.796 10.3801C131.472 10.2434 131.113 10.175 130.717 10.175C130.206 10.175 129.767 10.2686 129.4 10.4557C129.033 10.6428 128.853 10.9091 128.86 11.2545C128.853 11.4992 128.957 11.7259 129.173 11.9347C129.396 12.1434 129.824 12.3053 130.458 12.4205L133.826 13.025C135.524 13.3345 136.787 13.8562 137.615 14.5903C138.45 15.3172 138.871 16.2924 138.878 17.5159C138.871 18.6962 138.518 19.7218 137.82 20.5926C137.129 21.4562 136.183 22.1256 134.981 22.6006C133.786 23.0684 132.422 23.3023 130.889 23.3023C128.356 23.3023 126.373 22.7841 124.941 21.7477C123.516 20.7114 122.721 19.3439 122.555 17.6455H128.471C128.55 18.1708 128.81 18.5775 129.249 18.8653C129.695 19.146 130.256 19.2864 130.933 19.2864C131.48 19.2864 131.929 19.1928 132.282 19.0057C132.642 18.8186 132.825 18.5523 132.833 18.2068C132.825 17.8902 132.667 17.6383 132.358 17.4511C132.055 17.264 131.58 17.1129 130.933 16.9977L127.996 16.4795C126.305 16.1845 125.038 15.6231 124.196 14.7955C123.354 13.9678 122.937 12.9027 122.944 11.6C122.937 10.4485 123.239 9.4733 123.851 8.67443C124.47 7.86837 125.351 7.25663 126.496 6.8392C127.647 6.41458 129.011 6.20227 130.587 6.20227C132.984 6.20227 134.873 6.69886 136.255 7.69205C137.644 8.68523 138.374 10.0598 138.446 11.8159Z" fill="black"/>
</svg>
